<svg xmlns="http://www.w3.org/2000/svg" version="1.0" viewBox="0 0 561 142">
  <path fill="#017bfe"
    d="M70.5 84.5c-.2373-1.291.096-2.291 1-3 21.8405.3271 32.341-10.3395 31.5-32-2.5-10.5-9-17-19.5-19.5-24.6667-.3333-49.3333-.6667-74-1-.77972-1.073-.61305-2.2396.5-3.5C16.1349 18.364 22.6349 11.5307 29.5 5l6-3c19-.66667 38-.66667 57 0 32.848 7.87547 47.348 28.7088 43.5 62.5-1.027 4.1079-2.36 8.1079-4 12-5.389 7.4915-11.222 14.4915-17.5 21 7.198 12.561 14.532 25.061 22 37.5-.145.772-.478 1.439-1 2-9.333.667-18.667.667-28 0l-6-3c-10.5578-16.384-20.8911-32.884-31-49.5Z" />
  <path fill="#333333"
    d="M71.5 81.5c-.904.709-1.2373 1.709-1 3-6.5003-1.3148-13.0003-1.3148-19.5 0-2.9442 16.274-5.6109 32.608-8 49-.5 1.167-1.3333 2-2.5 2.5-8.5921 2.14-17.0921 1.973-25.5-.5 1.6773-17.058 3.6773-34.058 6-51-6.0758-.9764-12.24243-1.3097-18.5-1-.15668-1.3734.00999-2.7068.5-4 10.3693-10.7008 20.3693-21.7008 30-33 2.754-3.2621 5.9206-5.9288 9.5-8 1.5293.0288 2.696.6955 3.5 2 8.3287 13.8168 16.8287 27.4835 25.5 41Z" />
  <path fill="#333333"
    d="M247 27.5c0 2.8.4 3.5 2 3.5 1.7 0 2 .7 2 4.5v4.6l-3-1.6c-6.4-3.3-15.7-1-19.6 5-.9 1.4-1.9 5.3-2.1 8.8-1 11.8 4.9 19.7 14.5 19.7 2.4 0 5.6-.7 7.2-1.5 2.7-1.4 3-1.4 3 0 0 1.2 1.4 1.5 7 1.5h7v-3.4c0-2.8-.4-3.5-2.2-3.8-2.3-.3-2.3-.4-2.6-20.6L260 24h-13v3.5zm2 19.5c1.5 1.5 2 3.3 2 7.5 0 6.7-2.2 9.5-7.4 9.5-4.8 0-7.6-3.7-7.6-10.1 0-3.9.4-5.1 2.6-6.8 3.4-2.7 7.8-2.7 10.4-.1z" />
  <path fill="#333333"
    d="M430 27.5c0 2.8.4 3.5 2 3.5 1.7 0 2 .7 2 4.5v4.6l-3-1.6c-4.1-2.1-10.8-1.9-14.8.5-1.9 1.2-4.1 3.8-5.2 6.3-4 8.6-1.4 20.6 5.2 24.7 4 2.4 10.7 2.6 14.8.5 2.7-1.4 3-1.4 3 0 0 1.2 1.4 1.5 7 1.5h7v-3.5c0-2.8-.4-3.5-2-3.5-1.9 0-2-.8-2.2-20.3l-.3-20.2-6.7-.3-6.8-.3v3.6zm2 19.5c1.5 1.5 2 3.3 2 7.5 0 6.7-2.2 9.5-7.4 9.5-4.7 0-7.6-3.7-7.6-9.7 0-3.3.6-5 2.5-6.8 3-3.1 7.7-3.3 10.5-.5z" />
  <path fill="#333333"
    d="M486 31c0 3.3.3 4 2 4 1.9 0 2 .7 2 11.8 0 10.2.3 12.3 2.3 16.2 3.3 6.6 6.4 8.4 15.2 8.8 6.1.3 8.2 0 11.9-1.8 6.8-3.2 8.8-8.1 9.4-23.1.4-10.8.7-11.9 2.3-11.9 1.5 0 1.9-.8 1.9-4v-4h-19v4c0 3.6.3 4 2.5 4 2.5 0 2.5.1 2.5 8.2-.1 11.1-1.3 16.8-4 19-3.2 2.6-8.3 2.3-11.7-.6-2.7-2.4-2.8-2.7-3.1-14.5-.4-11.7-.3-12.1 1.7-12.1 1.8 0 2.1-.6 2.1-4v-4h-18v4z" />
  <path fill="#333333"
    d="M537 31c0 3.3.3 4 2 4 1.9 0 2 .7 2 14.5s-.1 14.5-2 14.5c-1.7 0-2 .7-2 4v4h18v-4c0-3.3-.3-4-2-4-1.9 0-2-.7-2-14.5s.1-14.5 2-14.5c1.7 0 2-.7 2-4v-4h-18v4z" />
  <path fill="#333333"
    d="M157.1 38.8c-11.8 6-11.6 25.9.3 31.3 5.3 2.4 13 2.4 18.4-.1 4.4-2 4.9-3.1 3.2-7.4l-1-2.6-3.2 2c-4.3 2.6-9.8 2.6-13.2-.1-1.4-1.1-2.6-2.5-2.6-3s5.2-.9 11.6-.9h11.7l-.6-6c-.6-6.9-2.4-10.2-7-13-4.1-2.6-12.9-2.7-17.6-.2zm15.2 8.3c3.4 4.1 2.4 4.9-6.3 4.9-4.4 0-8-.2-8-.5 0-1.7 2.6-5.5 4.4-6.4 2.9-1.5 7.8-.5 9.9 2z" />
  <path fill="#333333"
    d="M193.2 38.7c-4.7 2.3-7.4 8.1-7.4 15.9.1 6.7 1.5 10.5 5.6 14.3 3.4 3.2 12.4 4.1 16.1 1.7 3-2 3.5-2 3.5-.1 0 1.2 1.4 1.5 6.5 1.5h6.5v-3.5c0-2.8-.4-3.5-2-3.5-1.9 0-2-.7-2-14V37h-4.5c-3.3 0-4.5.4-4.5 1.5 0 1.9-.9 1.9-3.4 0-2.6-2-10.3-1.9-14.4.2zm14.8 8.1c1.6 1.3 2.4 3.2 2.7 6.8.8 7.9-4.3 12.4-11.2 9.8-2.1-.8-4.5-5.6-4.5-8.9 0-3.1 2.4-8.1 4.2-8.8 2.8-1.1 6.7-.6 8.8 1.1z" />
  <path fill="#333333"
    d="M264.7 37.6c-.4.4-.7 2-.7 3.6 0 2.4.4 2.8 2.8 2.8 2.7 0 3 .5 7.7 13.5 2.6 7.5 5.5 13.9 6.3 14.4 3 1.7.5 4.1-4.2 4.1-4.1 0-4.5.2-5.1 3.1-.4 1.7-.5 3.2-.3 3.5 1.1 1.1 9.6 1.5 12 .5 3.9-1.5 5.7-4.9 12.3-23.1 5.2-14.6 5.9-16 8.1-16 2.1 0 2.4-.5 2.4-3.5V37h-18v3.4c0 2.6.5 3.5 1.8 3.8 1.8.3 1.7.9-1.3 9.8l-3.2 9.5-2.8-8.5c-1.5-4.7-3-9.1-3.3-9.8-.2-.7.4-1.2 1.8-1.2 1.8 0 2.1-.5 1.8-3.3l-.3-3.2-8.5-.3c-4.7-.1-8.9 0-9.3.4z" />
  <path fill="#333333"
    d="M309 40.5c0 2.8.4 3.5 2 3.5 1.9 0 2 .7 2 10.5s-.1 10.5-2 10.5c-1.6 0-2 .7-2 3.5V72h8.5c7.7 0 8.5-.2 8.5-1.9 0-1.1.3-2.6.6-3.4.4-1.1-.2-1.6-1.8-1.9-2.1-.3-2.3-.8-2.6-7.9-.2-6.4 0-7.9 1.8-10.2 2.6-3.3 5.4-3.5 7.4-.5 1.2 1.7 1.6 5 1.6 14.1v11.8l6.8-.3 6.7-.3.3-3.2c.3-2.6-.1-3.2-2-3.5-2.1-.3-2.3-.8-2.6-7.9-.2-6.4 0-7.9 1.8-10.2 2.6-3.3 5.4-3.5 7.4-.5 1.2 1.7 1.6 5 1.6 14V72h14v-3.4c0-2.8-.4-3.5-2.2-3.8-2.2-.3-2.3-.9-2.8-10.8-.3-5.8-1-11.3-1.4-12.3-1.1-2.4-5.8-4.7-9.6-4.7-3.5 0-8.6 2.3-9.2 4.2-.3.9-1.5.4-3.7-1.5-3.8-3.2-9.7-3.6-13.6-1.1-2.3 1.5-2.5 1.5-2.5 0 0-1.3-1.2-1.6-6.5-1.6H309v3.5z" />
  <path fill="#333333"
    d="M378 37.7c-2.3.9-6 4.5-7.6 7.5-1.8 3.5-1.8 13.9 0 18.1 2.3 5.4 5.9 8 12.1 8.5 4 .3 6.2 0 8-1.2 3-2 3.5-2 3.5-.1 0 1.2 1.4 1.5 6.5 1.5h6.5v-3.5c0-2.8-.4-3.5-2-3.5-1.9 0-2-.7-2-14V37h-4.5c-3.3 0-4.5.4-4.5 1.5 0 1.9-.9 1.9-3.4 0-1.9-1.5-9.5-1.9-12.6-.8zm13.5 9.8c3.3 3.2 3.5 10 .4 13.9-2.5 3.2-7.9 3.6-10.8.7-2.3-2.3-3.6-7.9-2.6-11 1.9-6 8.8-7.9 13-3.6z" />
  <path fill="#333333"
    d="M457.6 39.3c-5.2 3-7.6 7.7-7.6 15 0 4.2.6 7 2.2 9.8 4.1 7.4 15.4 10.1 24.7 5.9 4.2-2 4.3-2.1 3.6-5.8-.4-2-.8-3.8-1-4-.1-.2-1.8.6-3.6 1.7-4.4 2.7-9.9 2.7-13.3 0-1.4-1.1-2.6-2.5-2.6-3s5.1-.9 11.5-.9H483v-4.8c0-5.9-2.5-11-6.9-13.9-4.7-3.1-13.1-3.1-18.5 0zm14.8 6.8c1.4 1.1 2.6 2.9 2.6 4 0 1.7-.8 1.9-7.9 1.9-7.5 0-7.9-.1-7.4-2 .7-2.7 5-6 7.8-6 1.2 0 3.4.9 4.9 2.1z" />
  <path fill="#333333"
    d="M327.9 99.9c-7.3 7.4.5 18.9 10.4 15.2 1.5-.6 2.7-1.7 2.7-2.6 0-1.2-.8-1.4-4-.9-3.1.5-4.5.3-6-1.1-3.8-3.5-1.6-9.5 3.6-9.5 1.7 0 2.4.5 2.4 2 0 1.3.7 2 2 2 1.6 0 2-.7 2-3.4 0-2.6-.5-3.5-2.2-4-4.9-1.3-8-.6-10.9 2.3z" />
  <path fill="#333333"
    d="M347.3 98c-6 2.4-5.7 14.1.4 16.9 3.2 1.5 4.8 1.4 8.3-.4 4-2.1 5.6-7.2 3.6-11.8-2.1-5.2-6.7-7-12.3-4.7zm7.5 4.2c1.7 1.7 1.5 7.3-.3 8.8-2.3 1.9-6.4.4-7.1-2.6-1.4-5.5 3.8-9.8 7.4-6.2z" />
  <path fill="#333333"
    d="M362.5 106.5v9.5h3.3c2.5 0 3.2-.4 3.2-2 0-1.1-.4-2-1-2-.5 0-1-1.8-1-4.1 0-4.8 1.2-4.5 3 1 1.9 5.9 4.3 5.5 6.9-1.2l2-5.2v4.7c.1 2.7-.4 4.8-1.1 5-2.6.9.2 3.8 3.7 3.8 2.8 0 3.5-.4 3.5-2 0-1.1-.4-2-1-2-.5 0-1-2.5-1-5.5s.5-5.5 1-5.5c.6 0 1-.9 1-2 0-1.7-.7-2-3.9-2-3.7 0-3.9.2-5.9 5.2-2.2 5.8-1.8 6-5.1-2.5-.8-2.2-1.7-2.7-4.3-2.7h-3.3v9.5z" />
  <path fill="#333333" d="M159 106c0 .7 26.2 1 76.5 1s76.5-.3 76.5-1-26.2-1-76.5-1-76.5.3-76.5 1z" />
  <path fill="#333333" d="M391 106c0 .7 26.2 1 76.5 1s76.5-.3 76.5-1-26.2-1-76.5-1-76.5.3-76.5 1z" />
  <path fill="#333333" d="M319.3 112.6c-.8 2 1.7 3.6 3.4 2.2 1-.8 1-1.4.2-2.4-1.5-1.8-2.8-1.8-3.6.2z" />
</svg>